<svg xmlns="http://www.w3.org/2000/svg" viewBox="0 0 100 100" width="24" height="24">
  <path d="M50,4 L89.6,27 L89.6,73 L50,96 L10.4,73 L10.4,27 Z"
        fill="none" stroke="#4A9EFF" stroke-width="5"/>
  <line x1="50" y1="4"    x2="50" y2="18"   stroke="#4A9EFF" stroke-width="4" stroke-linecap="round"/>
  <line x1="89.6" y1="27" x2="76" y2="34"   stroke="#4A9EFF" stroke-width="4" stroke-linecap="round"/>
  <line x1="89.6" y1="73" x2="76" y2="66"   stroke="#4A9EFF" stroke-width="4" stroke-linecap="round"/>
  <line x1="50"   y1="96" x2="50" y2="82"   stroke="#4A9EFF" stroke-width="4" stroke-linecap="round"/>
  <line x1="10.4" y1="73" x2="24" y2="66"   stroke="#4A9EFF" stroke-width="4" stroke-linecap="round"/>
  <line x1="10.4" y1="27" x2="24" y2="34"   stroke="#4A9EFF" stroke-width="4" stroke-linecap="round"/>
  <circle cx="50" cy="50" r="22" fill="none" stroke="#4A9EFF" stroke-width="5"/>
  <circle cx="50" cy="34" r="4" fill="#4A9EFF"/>
  <circle cx="64" cy="58" r="4" fill="#4A9EFF"/>
  <circle cx="36" cy="58" r="4" fill="#4A9EFF"/>
  <line x1="50" y1="34" x2="64" y2="58" stroke="#4A9EFF" stroke-width="3" stroke-linecap="round"/>
  <line x1="50" y1="34" x2="36" y2="58" stroke="#4A9EFF" stroke-width="3" stroke-linecap="round"/>
  <line x1="64" y1="58" x2="36" y2="58" stroke="#4A9EFF" stroke-width="3" stroke-linecap="round"/>
  <circle cx="50" cy="50" r="4" fill="#4A9EFF"/>
  <line x1="50" y1="50" x2="50" y2="34" stroke="#4A9EFF" stroke-width="2" stroke-dasharray="3,3" stroke-linecap="round"/>
  <line x1="50" y1="50" x2="64" y2="58" stroke="#4A9EFF" stroke-width="2" stroke-dasharray="3,3" stroke-linecap="round"/>
  <line x1="50" y1="50" x2="36" y2="58" stroke="#4A9EFF" stroke-width="2" stroke-dasharray="3,3" stroke-linecap="round"/>
</svg>